<?xml version="1.0" encoding="iso-8859-1"?>
<!-- Generator: Adobe Illustrator 25.2.3, SVG Export Plug-In . SVG Version: 6.00 Build 0)  -->
<svg version="1.1" id="Layer_1" xmlns="http://www.w3.org/2000/svg" xmlns:xlink="http://www.w3.org/1999/xlink" x="0px" y="0px"
	 viewBox="0 0 50 50" style="enable-background:new 0 0 50 50;" xml:space="preserve">
<circle cx="13" cy="15" r="2"/>
<circle cx="13" cy="25" r="2"/>
<circle cx="13" cy="35" r="2"/>
<path style="fill:none;stroke:#000000;stroke-width:2;stroke-linejoin:round;stroke-miterlimit:10;" d="M37,45H13
	c-4.418,0-8-3.582-8-8V13c0-4.418,3.582-8,8-8h24c4.418,0,8,3.582,8,8v24C45,41.418,41.418,45,37,45z"/>
<circle style="fill:none;stroke:#000000;stroke-miterlimit:10;" cx="13" cy="15" r="3.5"/>
<line style="fill:none;stroke:#000000;stroke-width:2;stroke-linecap:round;stroke-miterlimit:10;" x1="21" y1="15" x2="39" y2="15"/>
<circle style="fill:none;stroke:#000000;stroke-miterlimit:10;" cx="13" cy="25" r="3.5"/>
<line style="fill:none;stroke:#000000;stroke-width:2;stroke-linecap:round;stroke-miterlimit:10;" x1="21" y1="25" x2="39" y2="25"/>
<circle style="fill:none;stroke:#000000;stroke-miterlimit:10;" cx="13" cy="35" r="3.5"/>
<line style="fill:none;stroke:#000000;stroke-width:2;stroke-linecap:round;stroke-miterlimit:10;" x1="21" y1="35" x2="39" y2="35"/>
</svg>